<?xml version="1.0" encoding="UTF-8" standalone="no"?>
<svg
   version="1.1"
   id="svg2"
   xml:space="preserve"
   width="647.31598"
   height="172.56934"
   viewBox="0 0 647.31598 172.56934"
   xmlns="http://www.w3.org/2000/svg"
   xmlns:svg="http://www.w3.org/2000/svg"><path
     id="path48"
     style="fill:#231f20;fill-opacity:1;fill-rule:nonzero;stroke:none"
     d="m 111.37773,76.252932 c -5.456,0 -9.93333,4.488 -9.952,9.994667 -0.0173,5.526666 4.42133,10.050666 9.91467,10.088 5.512,0 9.988,-4.488 10.00666,-9.994667 0.0187,-5.526666 -4.42,-10.050666 -9.91333,-10.088 z m -0.11067,38.643998 c -10.96933,-0.0547 -20.717329,-6.26667 -25.470662,-16.225331 l -0.07333,-0.166667 -12.745333,13.555998 c -1.738667,1.83467 -4.069334,2.85467 -6.584,2.85467 -2.330667,0 -4.550667,-0.88934 -6.233334,-2.50267 -3.625333,-3.468 -3.773333,-9.25333 -0.333333,-12.906665 l 32.258666,-34.342666 0.03733,0.03733 c 5.270667,-4.877334 12.041336,-7.546667 19.235996,-7.546667 h 0.12934 c 10.96933,0.05467 20.71733,6.266667 25.47066,16.225333 l 0.0733,0.166667 12.744,-13.554667 c 1.72133,-1.817333 4.06933,-2.837333 6.58533,-2.837333 2.33067,0 4.55067,0.889334 6.23333,2.502667 3.62534,3.468 3.77334,9.253333 0.352,12.906666 l -32.27733,34.305335 -0.0373,-0.0373 c -5.252,4.87733 -12.04134,7.56533 -19.236,7.56533 z M 590.05719,66.628933 c -3.256,7.138666 -9.896,25.199999 -13.28134,32.358666 -4.79066,11.088001 -10.08,15.892001 -24.47066,15.892001 -7.62134,0 -12.91067,-1.11334 -17.70134,-2.46667 0.55334,-2.04 2.14534,-10.05066 2.45867,-12.573332 4.31067,1.781332 9.896,2.708002 15.00133,2.708002 4.30934,0 6.64134,-1.05733 7.992,-4.134668 -5.29066,-0.056 -10.13733,-0.056 -12.54133,0.05467 -2.14533,-4.988 -9.84,-23.530667 -13.52133,-31.857333 h 20.34666 c 0.79467,3.022667 3.25467,9.865333 5.28934,16.021333 1.22133,3.634666 2.14666,6.898666 2.88533,9.550666 h 0.55467 c 0.796,-2.652 1.90533,-5.916 3.016,-9.605333 2.03466,-6.157333 4.49466,-13.314666 5.16,-15.966666 h 18.812 z m -78.42734,22.864132 c -2.7,-0.314666 -5.53066,-0.370666 -8.48933,-0.370666 -5.04933,0 -7.196,1.112 -7.196,3.578666 0,2.466667 1.776,3.449334 6.696,3.449334 5.34667,0 8.972,-2.337334 8.972,-6.657334 z m 0.056,-7.510666 c 0,-4.134667 -1.48,-5.673333 -7.38,-5.673333 -6.4,0 -7.992,1.78 -7.80666,5.6 -1.77467,-0.185334 -4.54934,-0.185334 -7.49067,-0.185334 -3.31067,0 -6.76933,0.05467 -8.73067,0.314667 -0.12933,-11.774666 6.456,-16.392 24.39734,-16.392 17.94133,0 24.712,5.302667 24.712,15.353333 0,4.988 -0.18534,8.512 -0.18534,13.258667 0,4.136 0.37067,8.993331 0.98,10.792001 h -14.57466 c -3.256,0 -3.75467,-0.24 -3.75467,-3.68933 0,-0.79734 0,-1.965338 0.056,-3.264005 h -0.37067 c -2.03466,5.304005 -7.75066,7.825335 -16.40666,7.825335 -10.69067,0 -16.11067,-2.83733 -16.11067,-10.848001 0,-8.010667 6.32533,-11.274667 20.58667,-11.274667 4.864,0 9.1,0.130667 12.04133,0.612 v -2.410666 z m -73.63559,10.607333 c 2.404,1.038667 5.34533,1.538667 9.22933,1.538667 6.21467,0 8.86,-2.410667 8.86,-8.752 0,-6.341333 -2.77333,-8.252 -7.99067,-8.252 -5.77066,0 -10.08133,2.466667 -10.08133,8.622667 v 6.842666 z m 0.74,-19.229333 c 3.01466,-4.933333 8.67466,-7.510666 16.72133,-7.510666 12.484,0 18.81066,6.342666 18.81066,19.897333 0,13.555999 -6.95466,20.082664 -18.86666,20.082664 -9.47067,0 -14.26133,-3.13333 -16.72133,-6.842665 l -0.42534,0.056 c 0.0547,1.854665 0.0547,3.689335 0.0547,5.914665 0,3.02267 0.13067,5.916 0.18533,9.068 h -18.75466 c 0.24,-7.50933 0.24,-19.285331 0.24,-28.909331 0,-8.010667 0,-13.444 -0.12934,-18.488 h 18.57067 c 0,1.224 -0.056,2.337334 -0.056,3.449334 0,0.982666 -0.056,1.965333 -0.12933,3.078666 l 0.5,0.185333 z m -76.28107,31.672131 c 0.056,-0.98266 0.12933,-2.652 0.12933,-4.61733 0,-1.409335 -0.056,-3.022668 -0.056,-4.617335 0,-9.921333 6.64,-12.757333 19.736,-15.223999 11.56134,-2.336 14.50134,-3.208 14.50134,-6.972 0,-2.596 -2.404,-4.136 -7.99067,-4.136 -6.45467,0 -8.73067,1.78 -8.73067,5.229333 0,0.797333 0.056,1.538667 0.13067,2.522667 -1.96133,-0.130667 -4.736,-0.185334 -7.676,-0.185334 -3.81067,0 -7.06667,0.05467 -9.39733,0.314667 -0.12934,-1.409333 -0.24,-2.708 -0.24,-3.876 0,-10.606666 8.49066,-15.538666 26.19066,-15.538666 17.70267,0 25.87867,5.6 25.87867,14.853333 0,9.253333 -5.21733,12.701333 -19.496,14.853333 -11.376,1.594666 -14.26133,2.336 -14.81733,4.617333 6.03066,-0.056 13.152,-0.130667 17.276,-0.130667 6.03066,0 11.56133,-0.185333 16.22266,-0.370666 -0.0547,1.910666 -0.12933,4.561333 -0.12933,7.14 0,2.577331 0,4.690671 0.12933,6.100001 h -51.644 z m -5.04987,-38.403597 c -3.12666,4.802666 -7.196,11.886666 -11.672,19.229333 4.49467,7.139999 9.04534,14.168004 12.04267,19.174664 h -21.40133 c -1.48,-3.264 -2.83067,-5.489332 -4.79067,-9.179998 -1.036,-2.150667 -1.84933,-4.005333 -2.40533,-5.6 h -0.55467 c -0.60933,1.669333 -1.47866,3.634667 -2.516,5.785333 -1.96,3.690667 -3.384,6.286665 -4.54933,8.994665 h -19.736 c 3.31067,-4.87733 7.86133,-12.146665 12.41067,-19.470664 -4.49467,-7.028 -8.78534,-14.112 -12.11467,-18.914667 h 21.456 c 1.40533,3.264 3.12533,6.416 5.04933,10.236 0.92534,1.724 1.53467,3.318667 2.03467,4.692 h 0.5 c 0.5,-1.409333 1.16533,-2.968 2.03467,-4.748 1.95999,-3.949333 3.75466,-7.324 4.91999,-10.161333 h 19.31067 z m -77.92746,22.864132 c -2.7,-0.314666 -5.53067,-0.370666 -8.48933,-0.370666 -5.04934,0 -7.196,1.112 -7.196,3.578666 0,2.466667 1.776,3.449334 6.696,3.449334 5.34533,0 8.972,-2.337334 8.972,-6.657334 z m 0.056,-7.510666 c 0,-4.134667 -1.48,-5.673333 -7.38,-5.673333 -6.4,0 -7.992,1.78 -7.80667,5.6 -1.77466,-0.185334 -4.54933,-0.185334 -7.49066,-0.185334 -3.31067,0 -6.76934,0.05467 -8.73067,0.314667 -0.12933,-11.774666 6.456,-16.392 24.39733,-16.392 17.94134,0 24.712,5.302667 24.712,15.353333 0,4.988 -0.18533,8.512 -0.18533,13.258667 0,4.136 0.37067,8.993331 0.98,10.792001 h -14.57467 c -3.256,0 -3.75466,-0.24 -3.75466,-3.68933 0,-0.79734 0,-1.965338 0.056,-3.264005 h -0.37067 c -2.03467,5.304005 -7.75067,7.825335 -16.40667,7.825335 -10.69066,0 -16.11066,-2.83733 -16.11066,-10.848001 0,-8.010667 6.32533,-11.274667 20.58666,-11.274667 4.864,0 9.1,0.130667 12.04134,0.612 v -2.410666 z m -73.65427,10.607333 c 2.404,1.038667 5.34534,1.538667 9.22934,1.538667 6.216,0 8.86,-2.410667 8.86,-8.752 0,-6.341333 -2.77334,-8.252 -7.99067,-8.252 -5.77067,0 -10.08133,2.466667 -10.08133,8.622667 v 6.842666 z m 0.74,-19.229333 c 3.01467,-4.933333 8.67467,-7.510666 16.72134,-7.510666 12.48533,0 18.81066,6.342666 18.81066,19.897333 0,13.555999 -6.95466,20.082664 -18.86666,20.082664 -9.47067,0 -14.26134,-3.13333 -16.72134,-6.842665 l -0.42533,0.056 c 0.0547,1.854665 0.0547,3.689335 0.0547,5.914665 0,3.02267 0.13066,5.916 0.18533,9.068 H 187.6776 c 0.24,-7.50933 0.24,-19.285331 0.24,-28.909331 0,-8.010667 0,-13.444 -0.12934,-18.488 h 18.57067 c 0,1.224 -0.056,2.337334 -0.056,3.449334 0,0.982666 -0.056,1.965333 -0.12934,3.078666 l 0.5,0.185333 z" /></svg>
