<?xml version="1.0" encoding="UTF-8" standalone="no"?>
<svg
   version="1.1"
   id="svg2"
   xml:space="preserve"
   width="483.09467"
   height="499.40134"
   viewBox="0 0 483.09467 499.40134"
   xmlns="http://www.w3.org/2000/svg"
   xmlns:svg="http://www.w3.org/2000/svg"><defs
     id="defs6" /><path
     id="text"
     style="fill:#ffffff;fill-opacity:1;fill-rule:nonzero;stroke:none"
     d="m 401.48972,347.76987 c -2.588,5.676 -7.86667,20.03333 -10.55867,25.724 -3.808,8.816 -8.01333,12.63333 -19.45333,12.63333 -6.05867,0 -10.264,-0.884 -14.07333,-1.96 0.44133,-1.62133 1.70666,-7.99066 1.956,-9.99466 3.42666,1.41466 7.86666,2.152 11.92533,2.152 3.42667,0 5.28,-0.84 6.35333,-3.288 -4.20666,-0.044 -8.05866,-0.044 -9.97066,0.0453 -1.70534,-3.96667 -7.82267,-18.708 -10.748,-25.32667 h 16.17466 c 0.632,2.40267 2.588,7.84267 4.20534,12.73734 0.97066,2.88933 1.70533,5.48266 2.29333,7.592 h 0.44133 c 0.63334,-2.10934 1.51467,-4.70267 2.39734,-7.63734 1.61733,-4.89333 3.57333,-10.584 4.10266,-12.692 h 14.95467 z m -62.34826,18.17653 c -2.14667,-0.25067 -4.396,-0.29467 -6.74933,-0.29467 -4.01334,0 -5.72,0.884 -5.72,2.84534 0,1.96 1.412,2.74133 5.32266,2.74133 4.25067,0 7.132,-1.85733 7.132,-5.292 z m 0.0453,-5.97067 c 0,-3.28666 -1.17733,-4.51066 -5.868,-4.51066 -5.088,0 -6.35333,1.41466 -6.20533,4.452 -1.412,-0.148 -3.61733,-0.148 -5.956,-0.148 -2.632,0 -5.38133,0.0453 -6.94,0.25066 -0.10267,-9.36 5.132,-13.03066 19.396,-13.03066 14.26267,0 19.644,4.216 19.644,12.20533 0,3.96533 -0.14667,6.76667 -0.14667,10.54 0,3.288 0.29467,7.15067 0.78,8.58 H 342.3041 c -2.58934,0 -2.98534,-0.192 -2.98534,-2.93333 0,-0.63334 0,-1.56267 0.044,-2.59467 h -0.29466 c -1.61734,4.216 -6.16134,6.22133 -13.04267,6.22133 -8.5,0 -12.808,-2.256 -12.808,-8.624 0,-6.368 5.02933,-8.96266 16.36533,-8.96266 3.868,0 7.236,0.10266 9.57334,0.48666 v -1.91733 z m -58.53957,8.4324 c 1.91067,0.82533 4.24933,1.224 7.33733,1.224 4.94,0 7.044,-1.91733 7.044,-6.95867 0,-5.04133 -2.20533,-6.56 -6.35333,-6.56 -4.58667,0 -8.01333,1.96134 -8.01333,6.85467 v 5.44 z m 0.588,-15.28667 c 2.39733,-3.92133 6.896,-5.97066 13.29333,-5.97066 9.92534,0 14.95467,5.04133 14.95467,15.81733 0,10.776 -5.52933,15.96533 -15,15.96533 -7.528,0 -11.336,-2.49066 -13.292,-5.44 l -0.33867,0.0453 c 0.044,1.47333 0.044,2.93333 0.044,4.70266 0,2.40267 0.104,4.70267 0.148,7.208 h -14.91066 c 0.19066,-5.97066 0.19066,-15.33066 0.19066,-22.98266 0,-6.368 0,-10.68667 -0.10266,-14.69734 h 14.76266 c 0,0.97334 -0.044,1.85734 -0.044,2.74267 0,0.78133 -0.044,1.56267 -0.10266,2.44667 l 0.39733,0.148 z m -60.64173,25.17841 c 0.044,-0.78133 0.10267,-2.108 0.10267,-3.67067 0,-1.12 -0.044,-2.40266 -0.044,-3.67066 0,-7.88667 5.27866,-10.14267 15.68933,-12.10267 9.19067,-1.85733 11.52933,-2.55067 11.52933,-5.54267 0,-2.064 -1.912,-3.288 -6.35333,-3.288 -5.132,0 -6.94,1.41467 -6.94,4.15734 0,0.63333 0.044,1.224 0.10267,2.00533 -1.55867,-0.104 -3.764,-0.148 -6.10267,-0.148 -3.028,0 -5.61733,0.044 -7.46933,0.25067 -0.10267,-1.12 -0.19067,-2.152 -0.19067,-3.08134 0,-8.432 6.74933,-12.35333 20.82133,-12.35333 14.072,0 20.572,4.452 20.572,11.808 0,7.356 -4.14666,10.09867 -15.49866,11.808 -9.044,1.268 -11.33734,1.85733 -11.77867,3.67067 4.79333,-0.044 10.45467,-0.10267 13.73333,-0.10267 4.79467,0 9.19067,-0.148 12.896,-0.29467 -0.044,1.51734 -0.10266,3.62667 -0.10266,5.67467 0,2.04933 0,3.73067 0.10266,4.85067 h -41.05466 z m -4.01467,-30.53 c -2.48533,3.81867 -5.72,9.44933 -9.27867,15.28667 3.57334,5.676 7.19067,11.26266 9.57334,15.244 h -17.01334 c -1.17733,-2.59467 -2.25066,-4.364 -3.80933,-7.29734 -0.82267,-1.71066 -1.46933,-3.18533 -1.912,-4.452 h -0.44 c -0.48533,1.32667 -1.176,2.88934 -2,4.59867 -1.55867,2.93333 -2.69067,4.99733 -3.61733,7.15067 h -15.68934 c 2.63067,-3.87734 6.24934,-9.656 9.86667,-15.48 -3.57333,-5.58667 -6.98533,-11.21734 -9.632,-15.036 h 17.05733 c 1.11734,2.59466 2.48534,5.10133 4.01467,8.13733 0.73467,1.37067 1.22,2.63867 1.61733,3.72933 h 0.39734 c 0.39733,-1.12 0.92533,-2.35866 1.61733,-3.77333 1.55867,-3.14 2.98533,-5.82267 3.91067,-8.07867 h 15.352 z M 154.628,365.9464 c -2.14667,-0.25067 -4.396,-0.29467 -6.74933,-0.29467 -4.01334,0 -5.72,0.884 -5.72,2.84534 0,1.96 1.412,2.74133 5.32266,2.74133 4.24934,0 7.132,-1.85733 7.132,-5.292 z m 0.044,-5.97067 c 0,-3.28666 -1.176,-4.51066 -5.86667,-4.51066 -5.088,0 -6.35333,1.41466 -6.20533,4.452 -1.412,-0.148 -3.61733,-0.148 -5.95467,-0.148 -2.63333,0 -5.38266,0.0453 -6.94133,0.25066 -0.10267,-9.36 5.132,-13.03066 19.396,-13.03066 14.26267,0 19.644,4.216 19.644,12.20533 0,3.96533 -0.14667,6.76667 -0.14667,10.54 0,3.288 0.29467,7.15067 0.78,8.58 h -11.58666 c -2.58934,0 -2.98534,-0.192 -2.98534,-2.93333 0,-0.63334 0,-1.56267 0.044,-2.59467 h -0.29466 c -1.61734,4.216 -6.16134,6.22133 -13.04267,6.22133 -8.5,0 -12.808,-2.256 -12.808,-8.624 0,-6.368 5.02933,-8.96266 16.36533,-8.96266 3.868,0 7.236,0.10266 9.57334,0.48666 v -1.91733 z m -58.553202,8.4324 c 1.910667,0.82533 4.249332,1.224 7.337332,1.224 4.94133,0 7.044,-1.91733 7.044,-6.95867 0,-5.04133 -2.20533,-6.56 -6.35333,-6.56 -4.586669,0 -8.013335,1.96134 -8.013335,6.85467 v 5.44 z m 0.588,-15.28667 c 2.397333,-3.92133 6.896002,-5.97066 13.293332,-5.97066 9.92533,0 14.95467,5.04133 14.95467,15.81733 0,10.776 -5.52934,15.96533 -14.99867,15.96533 -7.52933,0 -11.337332,-2.49066 -13.293332,-5.44 l -0.338667,0.0453 c 0.044,1.47333 0.044,2.93333 0.044,4.70266 0,2.40267 0.104,4.70267 0.148,7.208 H 81.605465 c 0.190667,-5.97066 0.190667,-15.33066 0.190667,-22.98266 0,-6.368 0,-10.68667 -0.102667,-14.69734 h 14.762666 c 0,0.97334 -0.044,1.85734 -0.044,2.74267 0,0.78133 -0.044,1.56267 -0.102666,2.44667 l 0.397333,0.148 z M 241.54399,168.08587 c -16.08,0 -29.272,13.22533 -29.32667,29.45467 -0.0547,16.28533 13.028,29.62 29.21734,29.72933 16.244,0 29.436,-13.22533 29.49066,-29.456 0.0533,-16.28533 -13.028,-29.61867 -29.21733,-29.728 z m -0.32667,113.88533 c -32.32533,-0.164 -61.052,-18.47067 -75.06133,-47.816 l -0.21733,-0.492 -37.55733,39.94667 c -5.124,5.41066 -11.992,8.416 -19.40667,8.416 -6.868,0 -13.409333,-2.62267 -18.369333,-7.37734 -10.684,-10.21866 -11.12,-27.26933 -0.981333,-38.03466 l 95.065326,-101.20667 0.10934,0.10934 c 15.536,-14.37334 35.48666,-22.24267 56.69066,-22.24267 h 0.38134 c 32.32533,0.164 61.052,18.472 75.05999,47.81733 l 0.21867,0.492 37.556,-39.948 c 5.072,-5.35466 11.99333,-8.36133 19.408,-8.36133 6.86667,0 13.40933,2.624 18.37067,7.37733 10.68266,10.22 11.11733,27.26934 1.03466,38.036 l -95.11999,101.09733 -0.10934,-0.10933 c -15.48133,14.372 -35.48666,22.296 -56.69066,22.296 z" /></svg>
