<?xml version="1.0" encoding="UTF-8" standalone="no"?>
<svg
   version="1.1"
   id="svg2"
   xml:space="preserve"
   width="483.09467"
   height="499.40134"
   viewBox="0 0 483.09467 499.40134"
   xmlns="http://www.w3.org/2000/svg"
   xmlns:svg="http://www.w3.org/2000/svg"><path
     d="m 241.54399,168.08587 c -16.08,0 -29.272,13.22533 -29.32666,29.45467 -0.0547,16.28533 13.028,29.62 29.21733,29.72933 16.244,0 29.436,-13.22533 29.49067,-29.456 0.0533,-16.28533 -13.028,-29.61867 -29.21734,-29.728 z m -0.32666,113.88533 c -32.32534,-0.164 -61.052,-18.47066 -75.06133,-47.816 l -0.21734,-0.492 -37.55733,39.94667 c -5.124,5.41067 -11.992,8.416 -19.40667,8.416 -6.868,0 -13.409329,-2.62267 -18.369329,-7.37733 -10.684,-10.21867 -11.12,-27.26934 -0.981333,-38.03467 l 95.065332,-101.20666 0.10933,0.10933 c 15.536,-14.37333 35.48667,-22.24267 56.69067,-22.24267 h 0.38133 c 32.32533,0.164 61.052,18.472 75.06,47.81734 l 0.21867,0.492 37.55599,-39.948 c 5.072,-5.35467 11.99334,-8.36134 19.408,-8.36134 6.86667,0 13.40934,2.624 18.37067,7.37734 10.68267,10.22 11.11733,27.26933 1.03467,38.036 l -95.12,101.09733 -0.10933,-0.10934 c -15.48134,14.372 -35.48667,22.296 -56.69067,22.296 z"
     style="fill:#86c726;fill-opacity:1;fill-rule:nonzero;stroke:none"
     id="symbol" /><path
     id="text"
     style="fill:#2a2a21;fill-opacity:1;fill-rule:nonzero;stroke:none"
     d="m 401.48972,347.76987 c -2.588,5.676 -7.86666,20.03333 -10.55866,25.724 -3.808,8.816 -8.01334,12.63333 -19.45334,12.63333 -6.05866,0 -10.264,-0.884 -14.07333,-1.96 0.44133,-1.62133 1.70667,-7.99067 1.956,-9.99467 3.42667,1.41467 7.86667,2.152 11.92533,2.152 3.42667,0 5.28,-0.84 6.35334,-3.288 -4.20667,-0.044 -8.05867,-0.044 -9.97067,0.0453 -1.70533,-3.96667 -7.82267,-18.708 -10.748,-25.32667 h 16.17467 c 0.632,2.40267 2.588,7.84267 4.20533,12.73733 0.97067,2.88934 1.70533,5.48267 2.29333,7.592 h 0.44134 c 0.63333,-2.10933 1.51466,-4.70266 2.39733,-7.63733 1.61733,-4.89333 3.57333,-10.584 4.10267,-12.692 h 14.95466 z m -62.34826,18.17653 c -2.14667,-0.25067 -4.396,-0.29467 -6.74933,-0.29467 -4.01334,0 -5.72,0.884 -5.72,2.84534 0,1.96 1.412,2.74133 5.32266,2.74133 4.25067,0 7.132,-1.85733 7.132,-5.292 z m 0.0453,-5.97067 c 0,-3.28666 -1.17733,-4.51066 -5.868,-4.51066 -5.088,0 -6.35333,1.41466 -6.20533,4.452 -1.412,-0.148 -3.61733,-0.148 -5.956,-0.148 -2.632,0 -5.38133,0.0453 -6.94,0.25066 -0.10267,-9.36 5.132,-13.03066 19.396,-13.03066 14.26266,0 19.644,4.216 19.644,12.20533 0,3.96533 -0.14667,6.76667 -0.14667,10.54 0,3.288 0.29467,7.15067 0.78,8.58 h -11.58667 c -2.58933,0 -2.98533,-0.192 -2.98533,-2.93333 0,-0.63334 0,-1.56267 0.044,-2.59467 h -0.29467 c -1.61733,4.216 -6.16133,6.22133 -13.04266,6.22133 -8.5,0 -12.808,-2.256 -12.808,-8.624 0,-6.368 5.02933,-8.96266 16.36533,-8.96266 3.868,0 7.236,0.10266 9.57333,0.48666 v -1.91733 z m -58.5396,8.4324 c 1.91067,0.82534 4.24934,1.224 7.33734,1.224 4.94,0 7.044,-1.91733 7.044,-6.95866 0,-5.04134 -2.20534,-6.56 -6.35334,-6.56 -4.58666,0 -8.01333,1.96133 -8.01333,6.85466 v 5.44 z m 0.588,-15.28666 c 2.39734,-3.92134 6.896,-5.97067 13.29334,-5.97067 9.92533,0 14.95466,5.04133 14.95466,15.81733 0,10.776 -5.52933,15.96534 -15,15.96534 -7.528,0 -11.336,-2.49067 -13.292,-5.44 l -0.33866,0.0453 c 0.044,1.47333 0.044,2.93333 0.044,4.70267 0,2.40266 0.104,4.70266 0.148,7.208 h -14.91067 c 0.19067,-5.97067 0.19067,-15.33067 0.19067,-22.98267 0,-6.368 0,-10.68667 -0.10267,-14.69733 h 14.76267 c 0,0.97333 -0.044,1.85733 -0.044,2.74266 0,0.78134 -0.044,1.56267 -0.10267,2.44667 l 0.39733,0.148 z m -60.64173,25.1784 c 0.044,-0.78134 0.10267,-2.108 0.10267,-3.67067 0,-1.12 -0.044,-2.40267 -0.044,-3.67067 0,-7.88666 5.27866,-10.14266 15.68933,-12.10266 9.19067,-1.85734 11.52933,-2.55067 11.52933,-5.54267 0,-2.064 -1.912,-3.288 -6.35333,-3.288 -5.132,0 -6.94,1.41467 -6.94,4.15733 0,0.63334 0.044,1.224 0.10267,2.00534 -1.55867,-0.104 -3.764,-0.148 -6.10267,-0.148 -3.028,0 -5.61733,0.044 -7.46933,0.25066 -0.10267,-1.12 -0.19067,-2.152 -0.19067,-3.08133 0,-8.432 6.74933,-12.35333 20.82133,-12.35333 14.072,0 20.572,4.452 20.572,11.808 0,7.356 -4.14666,10.09866 -15.49866,11.808 -9.044,1.268 -11.33734,1.85733 -11.77867,3.67066 4.79333,-0.044 10.45467,-0.10266 13.73333,-0.10266 4.79467,0 9.19067,-0.148 12.896,-0.29467 -0.044,1.51733 -0.10266,3.62667 -0.10266,5.67467 0,2.04933 0,3.73066 0.10266,4.85066 H 220.6081 Z m -4.01467,-30.53 c -2.48533,3.81866 -5.72,9.44933 -9.27866,15.28666 3.57333,5.676 7.19066,11.26267 9.57333,15.244 H 199.8601 c -1.17733,-2.59466 -2.25067,-4.364 -3.80933,-7.29733 -0.82267,-1.71067 -1.46934,-3.18533 -1.912,-4.452 h -0.44 c -0.48534,1.32667 -1.176,2.88933 -2,4.59867 -1.55867,2.93333 -2.69067,4.99733 -3.61734,7.15066 H 172.3921 c 2.63067,-3.87733 6.24933,-9.656 9.86667,-15.48 -3.57334,-5.58666 -6.98534,-11.21733 -9.632,-15.036 h 17.05733 c 1.11733,2.59467 2.48533,5.10134 4.01467,8.13734 0.73466,1.37066 1.22,2.63866 1.61733,3.72933 h 0.39733 c 0.39734,-1.12 0.92534,-2.35867 1.61734,-3.77333 1.55866,-3.14 2.98533,-5.82267 3.91066,-8.07867 h 15.352 z M 154.628,365.9464 c -2.14667,-0.25067 -4.396,-0.29467 -6.74934,-0.29467 -4.01333,0 -5.72,0.884 -5.72,2.84534 0,1.96 1.412,2.74133 5.32267,2.74133 4.24933,0 7.132,-1.85733 7.132,-5.292 z m 0.044,-5.97067 c 0,-3.28666 -1.176,-4.51066 -5.86667,-4.51066 -5.088,0 -6.35333,1.41466 -6.20533,4.452 -1.412,-0.148 -3.61734,-0.148 -5.95467,-0.148 -2.63333,0 -5.38267,0.0453 -6.94133,0.25066 -0.10267,-9.36 5.132,-13.03066 19.396,-13.03066 14.26266,0 19.644,4.216 19.644,12.20533 0,3.96533 -0.14667,6.76667 -0.14667,10.54 0,3.288 0.29467,7.15067 0.78,8.58 h -11.58667 c -2.58933,0 -2.98533,-0.192 -2.98533,-2.93333 0,-0.63334 0,-1.56267 0.044,-2.59467 h -0.29467 c -1.61733,4.216 -6.16133,6.22133 -13.04266,6.22133 -8.5,0 -12.808,-2.256 -12.808,-8.624 0,-6.368 5.02933,-8.96266 16.36533,-8.96266 3.868,0 7.236,0.10266 9.57333,0.48666 v -1.91733 z m -58.553202,8.4324 c 1.910666,0.82534 4.249332,1.224 7.337332,1.224 4.94133,0 7.044,-1.91733 7.044,-6.95866 0,-5.04134 -2.20533,-6.56 -6.35333,-6.56 -4.586669,0 -8.013336,1.96133 -8.013336,6.85466 v 5.44 z m 0.588,-15.28666 c 2.397333,-3.92134 6.896002,-5.97067 13.293332,-5.97067 9.92533,0 14.95467,5.04133 14.95467,15.81733 0,10.776 -5.52934,15.96534 -14.99867,15.96534 -7.52933,0 -11.337332,-2.49067 -13.293332,-5.44 l -0.338667,0.0453 c 0.044,1.47333 0.044,2.93333 0.044,4.70267 0,2.40266 0.104,4.70266 0.148,7.208 H 81.605465 c 0.190666,-5.97067 0.190666,-15.33067 0.190666,-22.98267 0,-6.368 0,-10.68667 -0.102666,-14.69733 h 14.762666 c 0,0.97333 -0.044,1.85733 -0.044,2.74266 0,0.78134 -0.044,1.56267 -0.102667,2.44667 l 0.397334,0.148 z" /></svg>
