<?xml version="1.0" encoding="UTF-8" standalone="no"?>
<svg
   version="1.1"
   id="svg2"
   xml:space="preserve"
   width="313.88452"
   height="166.30533"
   viewBox="0 0 313.88452 166.30533"
   xmlns="http://www.w3.org/2000/svg"
   xmlns:svg="http://www.w3.org/2000/svg"><path
     d="m 156.9384,54.01733 c -15.848,0 -28.848,13.03333 -28.90133,29.028 -0.0533,16.04933 12.83866,29.18933 28.79333,29.29733 16.00933,0 29.00933,-13.03333 29.06267,-29.028 0.0533,-16.04933 -12.83867,-29.18933 -28.79334,-29.29733 z m -0.32267,112.23466 C 124.75973,166.09066 96.449067,148.04933 82.643737,119.128 l -0.21467,-0.484 -37.01333,39.36799 c -5.05067,5.332 -11.81867,8.29334 -19.124,8.29334 -6.76934,0 -13.216003,-2.584 -18.1040026,-7.26934 -10.529333,-10.072 -10.958666,-26.87466 -0.966667,-37.484 L 100.90773,21.812 l 0.108,0.108 C 116.3264,7.756 135.98773,0 156.88507,0 h 0.376 c 31.856,0.16133 60.16666,18.204 73.97199,47.124 l 0.21467,0.484 37.012,-39.368 C 273.4584,2.96266 280.27973,0 287.5864,0 c 6.76666,0 13.21466,2.58533 18.104,7.27066 10.528,10.07067 10.95733,26.87467 1.02,37.484 l -93.74133,99.632 -0.108,-0.108 c -15.256,14.164 -34.972,21.97333 -55.86934,21.97333 z"
     style="fill:#231f20;fill-opacity:1;fill-rule:nonzero;stroke:none"
     id="symbol" /></svg>
