<?xml version="1.0" encoding="UTF-8" standalone="no"?>
<svg
   version="1.1"
   id="svg2"
   xml:space="preserve"
   width="319.91022"
   height="330.70865"
   viewBox="0 0 319.91022 330.70865"
   sodipodi:docname="pax2pay-light-vertical-5.svg"
   inkscape:version="1.1.2 (0a00cf5339, 2022-02-04)"
   xmlns:inkscape="http://www.inkscape.org/namespaces/inkscape"
   xmlns:sodipodi="http://sodipodi.sourceforge.net/DTD/sodipodi-0.dtd"
   xmlns="http://www.w3.org/2000/svg"
   xmlns:svg="http://www.w3.org/2000/svg"><defs
     id="defs7" /><sodipodi:namedview
     id="namedview5"
     pagecolor="#ffffff"
     bordercolor="#000000"
     borderopacity="0.25"
     inkscape:pageshadow="2"
     inkscape:pageopacity="0.0"
     inkscape:pagecheckerboard="0"
     showgrid="false"
     inkscape:snap-page="true"
     fit-margin-top="0"
     fit-margin-left="0"
     fit-margin-right="0"
     fit-margin-bottom="0"
     inkscape:zoom="1.2615104"
     inkscape:cx="241.77366"
     inkscape:cy="80.459104"
     inkscape:window-width="2560"
     inkscape:window-height="1411"
     inkscape:window-x="0"
     inkscape:window-y="0"
     inkscape:window-maximized="1"
     inkscape:current-layer="svg2" /><path
     d="m 159.95289,111.30818 c -10.64834,0 -19.38422,8.75794 -19.42041,19.50518 -0.0362,10.78431 8.62727,19.61466 19.348,19.68706 10.75695,0 19.49283,-8.75794 19.52903,-19.50606 0.0352,-10.78431 -8.62728,-19.61379 -19.34802,-19.68618 z m -0.21632,75.41601 C 138.3304,186.6156 119.30731,174.49274 110.0302,155.05996 l -0.14393,-0.32581 -24.870847,26.45309 c -3.393165,3.583 -7.941225,5.57316 -12.851294,5.57316 -4.54806,0 -8.879795,-1.73676 -12.164357,-4.88535 -7.075053,-6.7669 -7.363777,-18.05803 -0.649849,-25.18694 l 62.953227,-67.020078 0.0724,0.0724 c 10.28809,-9.51817 23.49963,-14.72933 37.54114,-14.72933 h 0.25252 c 21.40616,0.10861 40.42924,12.23234 49.70549,31.665128 l 0.1448,0.32581 24.86996,-26.453968 c 3.35874,-3.54592 7.94212,-5.53697 12.85218,-5.53697 4.54718,0 8.87979,1.73764 12.16524,4.88535 7.07417,6.76778 7.36201,18.05802 0.68517,25.187828 l -62.98943,66.94768 -0.0724,-0.0724 c -10.25191,9.51729 -23.49963,14.76463 -37.54114,14.76463 z"
     style="fill:#86c726;fill-opacity:1;fill-rule:nonzero;stroke:none;stroke-width:0.662211"
     id="symbol" /><path
     id="text"
     style="fill:#2a2a21;fill-opacity:1;fill-rule:nonzero;stroke:none;stroke-width:0.662211"
     d="m 265.87058,230.29675 c -1.7138,3.7587 -5.20939,13.26627 -6.99206,17.03469 -2.52169,5.83805 -5.30651,8.36592 -12.8822,8.36592 -4.0121,0 -6.79692,-0.58539 -9.3195,-1.29793 0.29226,-1.07366 1.13018,-5.29151 1.29528,-6.61858 2.26918,0.93682 5.2094,1.42508 7.89708,1.42508 2.26917,0 3.49647,-0.55625 4.20725,-2.17735 -2.7857,-0.0291 -5.33654,-0.0291 -6.60269,0.03 -1.12928,-2.62678 -5.18024,-12.38863 -7.11743,-16.77159 h 10.71104 c 0.41851,1.59108 1.71379,5.1935 2.7848,8.4348 0.64279,1.91335 1.12929,3.63068 1.51867,5.02749 h 0.29226 c 0.4194,-1.39681 1.00302,-3.11414 1.58754,-5.05751 1.07101,-3.24042 2.36629,-7.00883 2.71683,-8.40478 h 9.90313 z m -41.28766,12.03668 c -1.42154,-0.16599 -2.91107,-0.19514 -4.46947,-0.19514 -2.65768,0 -3.78784,0.5854 -3.78784,1.88422 0,1.29793 0.93504,1.81534 3.52471,1.81534 2.81484,0 4.72289,-1.22995 4.72289,-3.50442 z m 0.03,-3.95384 c 0,-2.17646 -0.77964,-2.987 -3.88585,-2.987 -3.36932,0 -4.20724,0.9368 -4.10923,2.94816 -0.93504,-0.098 -2.39543,-0.098 -3.94412,-0.098 -1.74294,0 -3.56358,0.03 -4.59574,0.16599 -0.068,-6.19829 3.39846,-8.62903 12.84423,-8.62903 9.44488,0 13.00845,2.79187 13.00845,8.08249 0,2.62588 -0.0971,4.48095 -0.0971,6.97969 0,2.17735 0.19513,4.73525 0.51652,5.68176 h -7.67281 c -1.71468,0 -1.97692,-0.12714 -1.97692,-1.94248 0,-0.4194 0,-1.03481 0.0291,-1.71821 h -0.19514 c -1.07101,2.79187 -4.08009,4.11983 -8.63699,4.11983 -5.62878,0 -8.48158,-1.49395 -8.48158,-5.7109 0,-4.21696 3.33047,-5.93517 10.83728,-5.93517 2.56143,0 4.79176,0.068 6.33957,0.32227 v -1.26968 z m -38.76551,5.58402 c 1.26526,0.54655 2.81395,0.81055 4.85885,0.81055 3.27132,0 4.66461,-1.26968 4.66461,-4.6081 0,-3.33843 -1.46039,-4.3441 -4.20724,-4.3441 -3.03733,0 -5.30651,1.29882 -5.30651,4.53923 v 3.60242 z m 0.38938,-10.12298 c 1.58753,-2.59675 4.5666,-3.95384 8.80298,-3.95384 6.57266,0 9.90313,3.33842 9.90313,10.4744 0,7.13598 -3.66158,10.57241 -9.93315,10.57241 -4.98512,0 -7.50682,-1.64935 -8.8021,-3.60242 l -0.22427,0.03 c 0.0291,0.97565 0.0291,1.94248 0.0291,3.11415 0,1.59107 0.0689,3.11415 0.098,4.77321 h -9.87399 c 0.12626,-3.95384 0.12626,-10.15212 0.12626,-15.21936 0,-4.21695 0,-7.07682 -0.068,-9.73272 h 9.776 c 0,0.64455 -0.0291,1.22995 -0.0291,1.81622 0,0.51742 -0.0291,1.03482 -0.068,1.62021 l 0.26312,0.098 z m -40.15758,16.67339 c 0.0291,-0.51741 0.068,-1.39593 0.068,-2.43076 0,-0.74166 -0.0291,-1.59107 -0.0291,-2.43075 0,-5.22262 3.49557,-6.71657 10.38963,-8.0145 6.08615,-1.22995 7.63484,-1.68908 7.63484,-3.67042 0,-1.3668 -1.26615,-2.17734 -4.20724,-2.17734 -3.39846,0 -4.59574,0.93681 -4.59574,2.75302 0,0.41941 0.0291,0.81055 0.068,1.32796 -1.03217,-0.0689 -2.49256,-0.098 -4.04125,-0.098 -2.00518,0 -3.71986,0.0291 -4.94627,0.16599 -0.068,-0.74168 -0.12627,-1.42508 -0.12627,-2.04049 0,-5.58376 4.46948,-8.1805 13.7881,-8.1805 9.31863,0 13.62299,2.94816 13.62299,7.81937 0,4.87123 -2.74596,6.68744 -10.26337,7.81938 -5.98902,0.83969 -7.5077,1.22994 -7.79995,2.43075 3.17419,-0.0291 6.92319,-0.068 9.09435,-0.068 3.17507,0 6.08615,-0.098 8.53986,-0.19514 -0.0291,1.0048 -0.068,2.40162 -0.068,3.75783 0,1.35708 0,2.47048 0.068,3.21216 h -27.18681 z m -2.65855,-20.21727 c -1.64581,2.52876 -3.78785,6.25744 -6.14443,10.12298 2.3663,3.7587 4.76173,7.45826 6.33957,10.09473 h -11.26641 c -0.77964,-1.71821 -1.49042,-2.88988 -2.52257,-4.83236 -0.54479,-1.13283 -0.97302,-2.10936 -1.26615,-2.94816 h -0.29137 c -0.3214,0.87853 -0.77877,1.91333 -1.32442,3.04528 -1.03217,1.94248 -1.78179,3.30928 -2.39544,4.73524 H 114.1598 c 1.74206,-2.5676 4.13837,-6.3943 6.53381,-10.25101 -2.3663,-3.69954 -4.62576,-7.42823 -6.37841,-9.95699 h 11.29554 c 0.73991,1.71821 1.64581,3.37815 2.65856,5.38862 0.48649,0.90767 0.80789,1.74735 1.07101,2.4696 h 0.26312 c 0.26312,-0.74167 0.61277,-1.56193 1.07101,-2.49873 1.03216,-2.07935 1.97692,-3.85584 2.58969,-5.34978 h 10.16625 z m -41.02443,12.03668 c -1.42154,-0.16599 -2.911068,-0.19514 -4.469472,-0.19514 -2.657672,0 -3.787846,0.5854 -3.787846,1.88422 0,1.29793 0.93504,1.81534 3.524722,1.81534 2.813946,0 4.722886,-1.22995 4.722886,-3.50442 z m 0.0291,-3.95384 c 0,-2.17646 -0.77876,-2.987 -3.884976,-2.987 -3.369325,0 -4.20724,0.9368 -4.109233,2.94816 -0.93504,-0.098 -2.395439,-0.098 -3.943243,-0.098 -1.743817,0 -3.564458,0.03 -4.596619,0.16599 -0.06799,-6.19829 3.398463,-8.62903 12.844228,-8.62903 9.444883,0 13.008453,2.79187 13.008453,8.08249 0,2.62588 -0.0971,4.48095 -0.0971,6.97969 0,2.17735 0.19513,4.73525 0.51652,5.68176 h -7.67281 c -1.71468,0 -1.97692,-0.12714 -1.97692,-1.94248 0,-0.4194 0,-1.03481 0.0291,-1.71821 h -0.19514 c -1.07101,2.79187 -4.080094,4.11983 -8.636982,4.11983 -5.628788,0 -8.481588,-1.49395 -8.481588,-5.7109 0,-4.21696 3.330473,-5.93517 10.837284,-5.93517 2.561429,0 4.791756,0.068 6.339566,0.32227 v -1.26968 z m -38.774533,5.58402 c 1.265262,0.54655 2.813951,0.81055 4.858855,0.81055 3.272199,0 4.664609,-1.26968 4.664609,-4.6081 0,-3.33843 -1.460392,-4.3441 -4.207239,-4.3441 -3.03734,0 -5.306514,1.29882 -5.306514,4.53923 v 3.60242 z m 0.389379,-10.12298 c 1.587539,-2.59675 4.566603,-3.95384 8.80298,-3.95384 6.572654,0 9.903135,3.33842 9.903135,10.4744 0,7.13598 -3.661586,10.57241 -9.932272,10.57241 -4.985999,0 -7.507696,-1.64935 -8.80298,-3.60242 l -0.224268,0.03 c 0.02913,0.97565 0.02913,1.94248 0.02913,3.11415 0,1.59107 0.06887,3.11415 0.09801,4.77321 h -9.873995 c 0.126261,-3.95384 0.126261,-10.15212 0.126261,-15.21936 0,-4.21695 0,-7.07682 -0.06799,-9.73272 h 9.775987 c 0,0.64455 -0.02913,1.22995 -0.02913,1.81622 0,0.51742 -0.02914,1.03482 -0.06799,1.62021 l 0.263118,0.098 z" /></svg>
