<?xml version="1.0" encoding="UTF-8" standalone="no"?>
<svg
   version="1.1"
   id="svg2"
   xml:space="preserve"
   width="483.09467"
   height="499.40134"
   viewBox="0 0 483.09467 499.40134"
   xmlns="http://www.w3.org/2000/svg"
   xmlns:svg="http://www.w3.org/2000/svg"><path
     d="m 241.59799,220.5652 c -15.848,0 -28.848,13.03334 -28.90133,29.028 -0.0533,16.04934 12.83867,29.18934 28.79333,29.29734 16.00934,0 29.00934,-13.03334 29.06267,-29.028 0.0533,-16.04934 -12.83867,-29.18934 -28.79333,-29.29734 z m -0.32266,112.23467 c -31.856,-0.16134 -60.16667,-18.20267 -73.972,-47.124 l -0.21467,-0.484 -37.01333,39.368 c -5.05067,5.332 -11.81867,8.29333 -19.124,8.29333 -6.76933,0 -13.215999,-2.584 -18.103999,-7.26933 -10.529333,-10.072 -10.958666,-26.87467 -0.966667,-37.484 l 93.686666,-99.74 0.108,0.108 c 15.31066,-14.164 34.972,-21.92 55.86933,-21.92 h 0.376 c 31.856,0.16133 60.16667,18.204 73.972,47.124 l 0.21467,0.484 37.01199,-39.368 c 4.99867,-5.27733 11.82,-8.24 19.12667,-8.24 6.76667,0 13.21467,2.58533 18.104,7.27067 10.528,10.07066 10.95733,26.87466 1.02,37.484 l -93.74133,99.63199 -0.108,-0.108 c -15.256,14.164 -34.972,21.97334 -55.86933,21.97334 z"
     style="fill:#86c726;fill-opacity:1;fill-rule:nonzero;stroke:none"
     id="symbol" /></svg>
