<?xml version="1.0" encoding="UTF-8" standalone="no"?>
<svg
   version="1.1"
   id="svg2"
   xml:space="preserve"
   width="173.67383"
   height="18.6681"
   viewBox="0 0 173.67383 18.668101"
   xmlns="http://www.w3.org/2000/svg"
   xmlns:svg="http://www.w3.org/2000/svg"><defs
     id="defs7" /><path
     id="symbol"
     style="fill:#2a2a21;fill-opacity:1;fill-rule:nonzero;stroke:none;stroke-width:0.326016"
     d="m 173.67382,2.92586 c -1.06151,2.32731 -3.22626,8.21559 -4.32993,10.54943 -1.56183,3.61486 -3.28624,5.18104 -7.97782,5.18104 -2.48467,0 -4.20908,-0.36296 -5.77091,-0.80417 0.18039,-0.66508 0.69941,-3.27667 0.80156,-4.09911 1.40535,0.58075 3.22625,0.88285 4.89068,0.88285 1.4049,0 2.16517,-0.34471 2.60551,-1.34796 -1.72484,-0.0182 -3.30493,-0.0182 -4.08867,0.0178 -0.69942,-1.62617 -3.208,-7.67136 -4.40817,-10.38599 h 6.63333 c 0.25908,0.98544 1.06108,3.21626 1.72441,5.22321 0.39817,1.18496 0.69984,2.24907 0.94066,3.11367 h 0.18084 c 0.2595,-0.8646 0.62116,-1.92871 0.98326,-3.1315 0.66333,-2.00739 1.46533,-4.34078 1.68223,-5.20538 h 6.13302 z m -25.56855,7.45406 c -0.88024,-0.10259 -1.80309,-0.12085 -2.76765,-0.12085 -1.64617,0 -2.34601,0.36254 -2.34601,1.16671 0,0.80417 0.579,1.12454 2.183,1.12454 1.7431,0 2.92501,-0.76201 2.92501,-2.1704 z m 0.0182,-2.4486 c 0,-1.34796 -0.4825,-1.84959 -2.40599,-1.84959 -2.08651,0 -2.60552,0.58031 -2.5451,1.82569 -0.57857,-0.0604 -1.48315,-0.0604 -2.44208,-0.0604 -1.07932,0 -2.2069,0.0178 -2.84633,0.10259 -0.0422,-3.83873 2.10476,-5.34405 7.95391,-5.34405 5.84916,0 8.0565,1.72876 8.0565,5.00543 0,1.62616 -0.0604,2.77505 -0.0604,4.32253 0,1.34841 0.12084,2.93196 0.31949,3.51836 h -4.75156 c -1.06151,0 -1.22408,-0.0782 -1.22408,-1.20278 0,-0.25994 0,-0.64073 0.0182,-1.06411 h -0.12084 c -0.66333,1.72918 -2.52684,2.55118 -5.34883,2.55118 -3.48532,0 -5.25233,-0.92502 -5.25233,-3.53662 0,-2.6116 2.06216,-3.67572 6.71157,-3.67572 1.58575,0 2.96675,0.0426 3.92568,0.19952 V 7.93744 Z m -24.00636,3.45816 c 0.78374,0.33862 1.74266,0.50163 3.00891,0.50163 2.02608,0 2.8885,-0.78591 2.8885,-2.85329 0,-2.06737 -0.90415,-2.69028 -2.60508,-2.69028 -1.88134,0 -3.28668,0.80417 -3.28668,2.81113 v 2.23081 z m 0.24126,-6.26906 c 0.98282,-1.60835 2.82807,-2.4486 5.45141,-2.4486 4.06998,0 6.13258,2.06781 6.13258,6.48685 0,4.41946 -2.26734,6.54726 -6.15083,6.54726 -3.08759,0 -4.64942,-1.02151 -5.45143,-2.23082 l -0.13866,0.0182 c 0.0178,0.60465 0.0178,1.20278 0.0178,1.92828 0,0.98543 0.0426,1.9287 0.0604,2.95631 h -6.11432 c 0.0782,-2.44816 0.0782,-6.28733 0.0782,-9.4249 0,-2.61161 0,-4.38295 -0.0422,-6.02738 h 6.05433 c 0,0.39904 -0.0182,0.76201 -0.0182,1.12454 0,0.32036 -0.0182,0.64072 -0.0422,1.00369 l 0.16301,0.0604 z M 99.489543,15.44603 c 0.0182,-0.32037 0.0422,-0.86459 0.0422,-1.50532 0,-0.45947 -0.0182,-0.98544 -0.0182,-1.50533 0,-3.2345 2.164737,-4.15909 6.434237,-4.96326 3.76918,-0.76157 4.72766,-1.04586 4.72766,-2.27298 0,-0.84633 -0.78374,-1.3484 -2.60508,-1.3484 -2.10432,0 -2.84633,0.58031 -2.84633,1.70484 0,0.25995 0.0182,0.50163 0.0426,0.82243 -0.63942,-0.0426 -1.54401,-0.0604 -2.50249,-0.0604 -1.24234,0 -2.30385,0.0178 -3.063687,0.10258 -0.0422,-0.45947 -0.0782,-0.88284 -0.0782,-1.26364 0,-3.45794 2.768077,-5.06585 8.538567,-5.06585 5.77134,0 8.43684,1.82569 8.43684,4.84243 0,3.01673 -1.70093,4.14083 -6.356,4.84242 -3.70875,0.51989 -4.64941,0.76157 -4.83068,1.50532 1.96609,-0.0182 4.28776,-0.0426 5.63224,-0.0426 1.9661,0 3.76918,-0.0604 5.28885,-0.12084 -0.0178,0.62291 -0.0422,1.48707 -0.0422,2.32775 0,0.84025 0,1.52923 0.0422,1.98869 H 99.495313 Z M 97.843223,2.92586 c -1.01935,1.56574 -2.34601,3.87523 -3.80526,6.26906 1.46534,2.32775 2.94892,4.61899 3.9261,6.25124 h -6.97718 c -0.4825,-1.06411 -0.92283,-1.78961 -1.56182,-2.99282 -0.33776,-0.70115 -0.60292,-1.3058 -0.78418,-1.82569 h -0.18083 c -0.19865,0.54423 -0.48207,1.18496 -0.82026,1.88611 -0.63899,1.20321 -1.10323,2.04955 -1.48315,2.9324 h -6.434246 c 1.079328,-1.59009 2.562926,-3.96 4.046076,-6.34774 -1.46533,-2.29124 -2.864157,-4.60073 -3.949574,-6.16648 h 6.994984 c 0.45817,1.06412 1.01892,2.09172 1.64617,3.33709 0.30168,0.56205 0.50033,1.08194 0.66333,1.52967 h 0.16301 c 0.16301,-0.45946 0.37992,-0.96762 0.66334,-1.54792 0.63898,-1.28755 1.22408,-2.38774 1.60399,-3.31275 h 6.29558 z m -25.405584,7.45406 c -0.880235,-0.10259 -1.803081,-0.12085 -2.767655,-0.12085 -1.646157,0 -2.346002,0.36254 -2.346002,1.16671 0,0.80417 0.579001,1.12454 2.182997,1.12454 1.74266,0 2.925013,-0.76201 2.925013,-2.1704 z m 0.01824,-2.4486 c 0,-1.34796 -0.4825,-1.84959 -2.405999,-1.84959 -2.086496,0 -2.605518,0.58031 -2.545096,1.82569 -0.578567,-0.0604 -1.483152,-0.0604 -2.44207,-0.0604 -1.079328,0 -2.206915,0.0178 -2.846338,0.10259 -0.04218,-3.83873 2.104757,-5.34405 7.953914,-5.34405 5.849157,0 8.056497,1.72876 8.056497,5.00543 0,1.62616 -0.06041,2.77505 -0.06041,4.32253 0,1.34841 0.120844,2.93196 0.319495,3.51836 h -4.751577 c -1.0615,0 -1.224072,-0.0782 -1.224072,-1.20278 0,-0.25994 0,-0.64073 0.01824,-1.06411 h -0.120844 c -0.663331,1.72918 -2.526843,2.55118 -5.34883,2.55118 -3.485327,0 -5.252328,-0.92502 -5.252328,-3.53662 0,-2.6116 2.062154,-3.67572 6.711572,-3.67572 1.585744,0 2.96674,0.0426 3.925666,0.19952 V 7.93744 Z m -24.012443,3.45816 c 0.783741,0.33862 1.742659,0.50163 3.0089,0.50163 2.026515,0 2.888497,-0.78591 2.888497,-2.85329 0,-2.06737 -0.904143,-2.69028 -2.605074,-2.69028 -1.88133,0 -3.286676,0.80417 -3.286676,2.81113 v 2.23081 z m 0.241246,-6.26906 c 0.982834,-1.60835 2.828084,-2.4486 5.451419,-2.4486 4.070418,0 6.132572,2.06781 6.132572,6.48685 0,4.41946 -2.267329,6.54726 -6.150833,6.54726 -3.087581,0 -4.649417,-1.02151 -5.451411,-2.23082 l -0.138663,0.0182 c 0.01784,0.60465 0.01784,1.20278 0.01784,1.92828 0,0.98543 0.04258,1.9287 0.06041,2.95631 h -6.114283 c 0.07825,-2.44816 0.07825,-6.28733 0.07825,-9.4249 0,-2.61161 0,-4.38295 -0.04218,-6.02738 h 6.054322 c 0,0.39904 -0.01824,0.76201 -0.01824,1.12454 0,0.32036 -0.01824,0.64072 -0.04218,1.00369 l 0.163005,0.0604 z" /><path
     d="m 17.6168,6.06343 c -1.778739,0 -3.238425,1.46315 -3.244506,3.25842 -0.0056,1.80178 1.441425,3.27667 3.232335,3.28884 1.797,0 3.256244,-1.46315 3.262326,-3.25842 0.0064,-1.80178 -1.440984,-3.27667 -3.231894,-3.28884 z m -0.03607,12.59855 c -3.576173,-0.0178 -6.754176,-2.04303 -8.3038404,-5.28971 l -0.02394,-0.0543 -4.155182,4.41947 c -0.56683,0.59813 -1.326663,0.93066 -2.146484,0.93066 -0.759834,0 -1.483595,-0.28994 -2.03216402,-0.81591 -1.181919,-1.13062 -1.23017,-3.01673 -0.108673,-4.20778 L 11.327275,2.44817 l 0.01221,0.0122 C 13.057803,0.87028 15.265151,4e-5 17.61072,4e-5 h 0.04218 c 3.576173,0.0178 6.754176,2.04304 8.303832,5.28971 l 0.02394,0.0543 4.154748,-4.41904 C 30.696594,0.33254 31.462083,0 32.282338,0 c 0.759833,0 1.483587,0.28994 2.032162,0.81591 1.181919,1.13062 1.230169,3.01673 0.114754,4.20778 l -10.522915,11.18408 -0.01213,-0.0121 c -1.712236,1.59008 -3.925666,2.46641 -6.271243,2.46641 z"
     style="fill:#86c726;fill-opacity:1;fill-rule:nonzero;stroke:none;stroke-width:0.326016"
     id="text" /></svg>
