<?xml version="1.0" encoding="UTF-8" standalone="no"?>
<svg
   version="1.1"
   id="svg2"
   xml:space="preserve"
   width="483.09467"
   height="499.40134"
   viewBox="0 0 483.09467 499.40134"
   xmlns="http://www.w3.org/2000/svg"
   xmlns:svg="http://www.w3.org/2000/svg"><path
     d="m 241.59799,220.5652 c -15.848,0 -28.848,13.03333 -28.90133,29.028 -0.0533,16.04933 12.83866,29.18933 28.79333,29.29733 16.00933,0 29.00933,-13.03333 29.06267,-29.028 0.0533,-16.04933 -12.83867,-29.18933 -28.79334,-29.29733 z m -0.32267,112.23466 c -31.856,-0.16133 -60.16666,-18.20266 -73.97199,-47.12399 l -0.21467,-0.484 -37.01333,39.36799 c -5.05067,5.332 -11.81867,8.29334 -19.124,8.29334 -6.76934,0 -13.216003,-2.584 -18.104003,-7.26934 -10.529333,-10.072 -10.958666,-26.87466 -0.966667,-37.484 l 93.68666,-99.73999 0.108,0.108 c 15.31067,-14.164 34.972,-21.92 55.86934,-21.92 h 0.376 c 31.856,0.16133 60.16666,18.204 73.97199,47.124 l 0.21467,0.484 37.012,-39.368 c 4.99867,-5.27734 11.82,-8.24 19.12667,-8.24 6.76666,0 13.21466,2.58533 18.104,7.27066 10.528,10.07067 10.95733,26.87467 1.02,37.484 l -93.74133,99.632 -0.108,-0.108 c -15.256,14.164 -34.972,21.97333 -55.86934,21.97333 z"
     style="fill:#231f20;fill-opacity:1;fill-rule:nonzero;stroke:none"
     id="symbol" /></svg>
