<?xml version="1.0" encoding="UTF-8" standalone="no"?>
<svg
   version="1.1"
   id="svg2"
   xml:space="preserve"
   width="647.31598"
   height="172.56934"
   viewBox="0 0 647.31598 172.56934"
   xmlns="http://www.w3.org/2000/svg"
   xmlns:svg="http://www.w3.org/2000/svg"><path
     id="symbol"
     style="fill:#2a2a21;fill-opacity:1;fill-rule:nonzero;stroke:none"
     d="m 590.05719,66.628933 c -3.256,7.138666 -9.896,25.199999 -13.28133,32.358666 -4.79067,11.088001 -10.08,15.892001 -24.47067,15.892001 -7.62133,0 -12.91067,-1.11333 -17.70133,-2.46667 0.55333,-2.04 2.14533,-10.05066 2.45866,-12.573331 4.31067,1.781331 9.896,2.708001 15.00134,2.708001 4.30933,0 6.64133,-1.05733 7.992,-4.134668 -5.29067,-0.056 -10.13734,-0.056 -12.54134,0.05467 -2.14533,-4.988 -9.84,-23.530666 -13.52133,-31.857333 h 20.34667 c 0.79466,3.022667 3.25466,9.865333 5.28933,16.021333 1.22133,3.634667 2.14667,6.898667 2.88533,9.550667 h 0.55467 c 0.796,-2.652 1.90533,-5.916 3.016,-9.605333 2.03467,-6.157334 4.49467,-13.314667 5.16,-15.966667 h 18.812 z m -78.42734,22.864132 c -2.7,-0.314667 -5.53067,-0.370667 -8.48933,-0.370667 -5.04934,0 -7.196,1.112 -7.196,3.578667 0,2.466667 1.776,3.449333 6.696,3.449333 5.34666,0 8.972,-2.337333 8.972,-6.657333 z m 0.056,-7.510666 c 0,-4.134667 -1.48,-5.673334 -7.38,-5.673334 -6.4,0 -7.992,1.78 -7.80667,5.6 -1.77466,-0.185333 -4.54933,-0.185333 -7.49066,-0.185333 -3.31067,0 -6.76934,0.05467 -8.73067,0.314667 -0.12933,-11.774667 6.456,-16.392 24.39733,-16.392 17.94134,0 24.712,5.302666 24.712,15.353333 0,4.988 -0.18533,8.512 -0.18533,13.258666 0,4.136 0.37067,8.993332 0.98,10.792002 h -14.57467 c -3.256,0 -3.75466,-0.24 -3.75466,-3.68934 0,-0.79733 0,-1.965329 0.056,-3.263995 h -0.37067 c -2.03467,5.303995 -7.75067,7.825335 -16.40667,7.825335 -10.69066,0 -16.11066,-2.83734 -16.11066,-10.848002 0,-8.010666 6.32533,-11.274666 20.58666,-11.274666 4.864,0 9.1,0.130666 12.04134,0.612 v -2.410667 z m -73.63559,10.607333 c 2.404,1.038667 5.34533,1.538667 9.22933,1.538667 6.21467,0 8.86,-2.410667 8.86,-8.752 0,-6.341333 -2.77333,-8.252 -7.99066,-8.252 -5.77067,0 -10.08134,2.466667 -10.08134,8.622667 v 6.842666 z m 0.74,-19.229333 c 3.01467,-4.933333 8.67467,-7.510666 16.72133,-7.510666 12.484,0 18.81067,6.342666 18.81067,19.897333 0,13.555999 -6.95467,20.082664 -18.86667,20.082664 -9.47066,0 -14.26133,-3.13333 -16.72133,-6.842665 l -0.42533,0.056 c 0.0547,1.854665 0.0547,3.689335 0.0547,5.914665 0,3.02267 0.13067,5.916 0.18534,9.068 H 419.7943 c 0.24,-7.50933 0.24,-19.285331 0.24,-28.909331 0,-8.010667 0,-13.444 -0.12933,-18.488 h 18.57066 c 0,1.224 -0.056,2.337334 -0.056,3.449334 0,0.982666 -0.056,1.965333 -0.12933,3.078666 l 0.5,0.185333 z m -76.28107,31.672131 c 0.056,-0.98267 0.12933,-2.652 0.12933,-4.61733 0,-1.409337 -0.056,-3.02267 -0.056,-4.617336 0,-9.921334 6.64,-12.757333 19.736,-15.224 11.56134,-2.336 14.50134,-3.208 14.50134,-6.972 0,-2.596 -2.404,-4.136 -7.99067,-4.136 -6.45467,0 -8.73067,1.78 -8.73067,5.229333 0,0.797334 0.056,1.538667 0.13067,2.522667 -1.96133,-0.130667 -4.736,-0.185333 -7.676,-0.185333 -3.81067,0 -7.06667,0.05467 -9.39733,0.314666 -0.12934,-1.409333 -0.24,-2.708 -0.24,-3.876 0,-10.606666 8.49066,-15.538666 26.19066,-15.538666 17.70267,0 25.87867,5.6 25.87867,14.853333 0,9.253333 -5.21733,12.701333 -19.496,14.853333 -11.376,1.594667 -14.26133,2.336 -14.81733,4.617333 6.03066,-0.056 13.152,-0.130666 17.276,-0.130666 6.03066,0 11.56133,-0.185334 16.22266,-0.370667 -0.0547,1.910667 -0.12933,4.561333 -0.12933,7.14 0,2.577333 0,4.690663 0.12933,6.100003 h -51.644 z m -5.04987,-38.403597 c -3.12667,4.802667 -7.196,11.886666 -11.672,19.229333 4.49467,7.14 9.04533,14.168004 12.04267,19.174664 h -21.40134 c -1.48,-3.264 -2.83066,-5.489331 -4.79066,-9.179998 -1.036,-2.150666 -1.84934,-4.005333 -2.40534,-5.6 h -0.55466 c -0.60934,1.669334 -1.47867,3.634667 -2.516,5.785334 -1.96,3.690666 -3.384,6.286664 -4.54934,8.994664 h -19.736 c 3.31067,-4.87733 7.86134,-12.146664 12.41067,-19.470664 -4.49467,-7.028 -8.78533,-14.112 -12.11467,-18.914666 h 21.456 c 1.40534,3.264 3.12534,6.416 5.04934,10.235999 0.92533,1.724 1.53466,3.318667 2.03466,4.692 h 0.5 c 0.5,-1.409333 1.16534,-2.968 2.03467,-4.748 1.96,-3.949333 3.75467,-7.323999 4.92,-10.161333 h 19.31067 z m -77.92746,22.864132 c -2.7,-0.314667 -5.53067,-0.370667 -8.48933,-0.370667 -5.04934,0 -7.196,1.112 -7.196,3.578667 0,2.466667 1.776,3.449333 6.696,3.449333 5.34533,0 8.972,-2.337333 8.972,-6.657333 z m 0.056,-7.510666 c 0,-4.134667 -1.48,-5.673334 -7.38,-5.673334 -6.4,0 -7.992,1.78 -7.80667,5.6 -1.77466,-0.185333 -4.54933,-0.185333 -7.49066,-0.185333 -3.31067,0 -6.76934,0.05467 -8.73067,0.314667 -0.12933,-11.774667 6.456,-16.392 24.39733,-16.392 17.94134,0 24.712,5.302666 24.712,15.353333 0,4.988 -0.18533,8.512 -0.18533,13.258666 0,4.136 0.37067,8.993332 0.98,10.792002 h -14.57467 c -3.256,0 -3.75466,-0.24 -3.75466,-3.68934 0,-0.79733 0,-1.965329 0.056,-3.263995 h -0.37067 c -2.03467,5.303995 -7.75067,7.825335 -16.40667,7.825335 -10.69066,0 -16.11066,-2.83734 -16.11066,-10.848002 0,-8.010666 6.32533,-11.274666 20.58666,-11.274666 4.864,0 9.1,0.130666 12.04134,0.612 v -2.410667 z m -73.65427,10.607333 c 2.404,1.038667 5.34533,1.538667 9.22933,1.538667 6.216,0 8.86,-2.410667 8.86,-8.752 0,-6.341333 -2.77333,-8.252 -7.99066,-8.252 -5.77067,0 -10.08134,2.466667 -10.08134,8.622667 v 6.842666 z m 0.74,-19.229333 c 3.01467,-4.933333 8.67467,-7.510666 16.72133,-7.510666 12.48534,0 18.81067,6.342666 18.81067,19.897333 0,13.555999 -6.95467,20.082664 -18.86667,20.082664 -9.47066,0 -14.26133,-3.13333 -16.72133,-6.842665 l -0.42533,0.056 c 0.0547,1.854665 0.0547,3.689335 0.0547,5.914665 0,3.02267 0.13067,5.916 0.18534,9.068 h -18.75467 c 0.24,-7.50933 0.24,-19.285331 0.24,-28.909331 0,-8.010667 0,-13.444 -0.12933,-18.488 h 18.57066 c 0,1.224 -0.056,2.337334 -0.056,3.449334 0,0.982666 -0.056,1.965333 -0.12933,3.078666 l 0.5,0.185333 z" /><path
     d="m 111.37773,76.252932 c -5.456,0 -9.93333,4.488 -9.952,9.994666 -0.0173,5.526667 4.42133,10.050667 9.91467,10.088 5.512,0 9.988,-4.488 10.00666,-9.994666 0.0187,-5.526667 -4.42,-10.050667 -9.91333,-10.088 z m -0.11067,38.643998 c -10.96933,-0.0547 -20.717329,-6.26667 -25.470663,-16.225332 l -0.07333,-0.166667 -12.745333,13.555999 c -1.738667,1.83467 -4.069333,2.85467 -6.584,2.85467 -2.330666,0 -4.550666,-0.88934 -6.233333,-2.50267 -3.625333,-3.468 -3.773333,-9.25333 -0.333333,-12.906665 l 32.258665,-34.342666 0.03733,0.03733 c 5.270667,-4.87733 12.041337,-7.546663 19.235997,-7.546663 h 0.12934 c 10.96933,0.05467 20.71733,6.266666 25.47066,16.225333 l 0.0733,0.166666 12.744,-13.554666 c 1.72133,-1.817333 4.06933,-2.837333 6.58533,-2.837333 2.33067,0 4.55067,0.889333 6.23333,2.502666 3.62534,3.468 3.77334,9.253334 0.352,12.906667 l -32.27733,34.305331 -0.0373,-0.0373 c -5.252,4.87733 -12.04134,7.56533 -19.236,7.56533 z"
     style="fill:#86c726;fill-opacity:1;fill-rule:nonzero;stroke:none"
     id="text" /></svg>
